#!OML:ASF H:\Terrain\Walking\May29\JustinRory\Justin.ASF
:FULLY-SPECIFIED
:DEGREES
392
root 16.7437 9.93814 -6.62182 -124.675 -84.9575 102.407
lowerback 45.1192 3.07329 -2.56828
upperback 15.4488 0.0293853 1.01427
thorax -3.5883 -1.2838 2.43625
lowerneck -15.0547 12.1924 -4.61505
upperneck 19.3113 18.8791 -5.48823
head 8.65423 7.89999 1.09509
rclavicle 3.97569e-016 3.97569e-015
rhumerus -0.180837 26.0084 -74.2491
rradius 91.5491
rwrist 3.43554
rhand -16.2567 27.3023
rfingers 7.12502
rthumb 9.95249 -2.44243
lclavicle 3.97569e-016 3.97569e-015
lhumerus 20.4567 -35.8312 75.8499
lradius 67.5583
lwrist -29.432
lhand 5.10886 26.5129
lfingers 7.12502
lthumb 30.4738 54.0133
rfemur -67.5944 -11.6931 14.0767
rtibia 73.3126
rfoot 19.3636 0.844842
rtoes 21.3948
lfemur -64.9985 6.78574 -12.4758
ltibia 72.3715
lfoot 18.4395 5.2524
ltoes 46.5491
393
root 16.7455 9.94097 -6.61354 -121.882 -84.8517 99.6485
lowerback 45.0741 2.97716 -2.7396
upperback 15.4268 -0.163771 0.81904
thorax -3.59044 -1.3692 2.39018
lowerneck -15.1072 12.3449 -5.44447
upperneck 19.3978 19.0354 -4.36212
head 8.4854 8.04285 1.56669
rclavicle -7.15625e-015 -7.15625e-015
rhumerus -0.0307066 26.1816 -74.506
rradius 91.4103
rwrist 3.66716
rhand -16.2906 26.9242
rfingers 7.12502
rthumb 9.91978 -2.82204
lclavicle -7.15625e-015 -7.15625e-015
lhumerus 19.9798 -35.7998 75.6662
lradius 67.9708
lwrist -29.3135
lhand 4.91687 26.7885
lfingers 7.12502
lthumb 30.2907 54.3227
rfemur -67.6207 -11.8642 13.7805
rtibia 73.2969
rfoot 19.3671 0.844057
rtoes 21.315
lfemur -65.0345 6.5833 -12.784
ltibia 72.3444
lfoot 18.3582 5.37354
ltoes 46.9973
394
root 16.7516 9.94864 -6.60888 -120.704 -84.8443 98.5808
lowerback 44.9129 2.85577 -3.24288
upperback 15.3772 -0.512885 0.725347
thorax -3.58475 -1.55092 2.68064
lowerneck -15.4464 12.7202 -4.39639
upperneck 19.8197 19.6308 -5.46125
head 8.92079 8.21688 1.21144
rclavicle -5.96354e-015 1.07344e-014
rhumerus 0.159874 27.1243 -74.6385
rradius 91.3488
rwrist 3.73945
rhand -16.1145 27.2853
rfingers 7.12502
rthumb 10.0897 -2.45283
lclavicle -5.96354e-015 1.07344e-014
lhumerus 19.2751 -35.112 75.4985
lradius 68.3656
lwrist -29.403
lhand 5.54812 27.0988
lfingers 7.12502
lthumb 30.8926 54.5207
rfemur -67.7409 -11.8928 13.6004
rtibia 73.2827
rfoot 19.3199 0.445545
rtoes 22.9691
lfemur -65.1171 6.48721 -12.9015
ltibia 72.2931
lfoot 18.2122 5.52845
ltoes 46.83
395
root 16.7569 9.9551 -6.60898 -123.618 -85.32 101.656
lowerback 44.7578 2.75099 -3.40092
upperback 15.2922 -0.66799 0.938649
thorax -3.63099 -1.63872 3.04943
lowerneck -15.6909 12.9645 -3.73089
upperneck 20.0084 20.1054 -6.55269
head 9.23609 8.32449 0.878458
rclavicle 7.35503e-015 -2.78299e-015
rhumerus 0.346841 27.9089 -74.8774
rradius 91.0923
rwrist 4.05073
rhand -15.9457 27.8134
rfingers 7.12502
rthumb 10.2525 -1.91674
lclavicle 7.35503e-015 -2.78299e-015
lhumerus 18.6889 -34.2573 75.7747
lradius 68.4614
lwrist -29.5522
lhand 6.70851 27.2712
lfingers 7.12502
lthumb 31.9982 54.4775
rfemur -67.7987 -11.7178 14.087
rtibia 73.1948
rfoot 19.1965 -0.0413138
rtoes 24.3784
lfemur -65.3225 6.52647 -12.2583
ltibia 72.2721
lfoot 18.3078 5.62018
ltoes 46.4363
396
root 16.7563 9.95254 -6.61264 -125.599 -85.6102 103.795
lowerback 44.5651 2.90071 -3.39913
upperback 15.3387 -0.440276 1.34545
thorax -3.54686 -1.55256 3.3919
lowerneck -15.9977 12.7235 -4.45863
upperneck 19.9233 19.9592 -6.54311
head 9.18858 8.19927 0.974142
rclavicle 6.16232e-015 1.47101e-014
rhumerus 0.576446 27.7489 -74.5618
rradius 90.9023
rwrist 4.23922
rhand -15.434 27.6908
rfingers 7.12502
rthumb 10.7461 -2.01429
lclavicle 6.16232e-015 1.47101e-014
lhumerus 19.0402 -33.9068 76.7223
lradius 67.7387
lwrist -29.8847
lhand 7.27394 27.4039
lfingers 7.12502
lthumb 32.5364 54.5007
rfemur -67.8974 -11.5383 14.4742
rtibia 73.1026
rfoot 19.1868 0.0140248
rtoes 23.0436
lfemur -65.5637 6.54685 -11.793
ltibia 72.2748
lfoot 18.5265 5.68307
ltoes 46.6464
397
root 16.7545 9.94786 -6.61302 -125.583 -85.6865 103.806
lowerback 44.3769 3.03282 -3.46078
upperback 15.4941 -0.293355 1.59251
thorax -3.33776 -1.51149 3.6252
lowerneck -16.1942 12.5616 -4.96683
upperneck 19.7111 19.8606 -6.57828
head 9.10504 8.12347 1.02154
rclavicle -1.59028e-014 -1.03368e-014
rhumerus 0.796311 27.5993 -73.9998
rradius 90.9028
rwrist 4.10502
rhand -15.0042 27.4425
rfingers 7.12502
rthumb 11.1607 -2.24067
lclavicle -1.59028e-014 -1.03368e-014
lhumerus 19.823 -33.4064 77.7914
lradius 66.3891
lwrist -30.3063
lhand 7.6568 27.3547
lfingers 7.12502
lthumb 32.9007 54.3758
rfemur -67.8997 -11.4529 14.5398
rtibia 73.0784
rfoot 19.2634 0.101228
rtoes 21.7614
lfemur -65.6407 6.51376 -11.7043
ltibia 72.2922
lfoot 18.421 5.38325
ltoes 46.3515
398
root 16.7538 9.94697 -6.60965 -127.756 -85.918 106.017
lowerback 44.2671 2.97014 -3.28527
upperback 15.5348 -0.292865 1.62865
thorax -3.26576 -1.50915 3.57289
lowerneck -16.2296 12.64 -5.08228
upperneck 19.6593 19.9929 -6.57918
head 9.08362 8.18051 1.0525
rclavicle -6.95746e-015 -2.78299e-015
rhumerus 0.856725 27.7108 -73.9021
rradius 90.9384
rwrist 3.98149
rhand -14.9965 27.5035
rfingers 7.12502
rthumb 11.1681 -2.17927
lclavicle -6.95746e-015 -2.78299e-015
lhumerus 20.1611 -33.0076 78.2226
lradius 65.5931
lwrist -30.4889
lhand 7.67489 27.7598
lfingers 7.12502
lthumb 32.9179 54.7773
rfemur -67.8592 -11.3693 14.8188
rtibia 73.0595
rfoot 19.3795 0.10193
rtoes 21.082
lfemur -65.7197 6.5376 -11.4108
ltibia 72.3076
lfoot 18.1605 4.78375
ltoes 45.5431
399
root 16.7636 9.95073 -6.60921 -127.877 -85.7531 106.168
lowerback 44.4808 3.01521 -3.22024
upperback 15.2989 -0.202792 1.40964
thorax -3.58717 -1.42506 3.27851
lowerneck -15.9661 12.5555 -5.06254
upperneck 19.5579 19.8016 -6.44569
head 8.98428 8.12676 1.04396
rclavicle 8.54774e-015 -2.66371e-014
rhumerus 0.331994 27.43 -74.3005
rradius 91.0686
rwrist 4.07279
rhand -15.1397 27.5415
rfingers 7.12502
rthumb 11.03 -2.14867
lclavicle 8.54774e-015 -2.66371e-014
lhumerus 19.9074 -33.34 78.354
lradius 65.5527
lwrist -30.5671
lhand 7.61905 28.385
lfingers 7.12502
lthumb 32.8647 55.4137
rfemur -67.9281 -11.2029 14.6286
rtibia 73.0401
rfoot 19.5249 -0.00656385
rtoes 21.3381
lfemur -65.7479 6.53817 -11.416
ltibia 72.2576
lfoot 18.0493 4.74048
ltoes 45.6533
400
root 16.7733 9.95462 -6.60828 -124.291 -85.4177 102.461
lowerback 44.2966 3.23015 -3.6445
upperback 15.5343 -0.141792 1.36909
thorax -3.27923 -1.4336 3.4204
lowerneck -16.0569 12.3963 -5.15394
upperneck 19.0159 19.6295 -6.77464
head 8.84302 8.04376 0.920239
rclavicle -3.57812e-015 1.47101e-014
rhumerus 0.716738 27.2092 -73.9008
rradius 91.0446
rwrist 4.03949
rhand -15.2091 27.2552
rfingers 7.12502
rthumb 10.963 -2.43853
lclavicle -3.57812e-015 1.47101e-014
lhumerus 20.3184 -33.403 78.2414
lradius 65.5542
lwrist -30.5873
lhand 8.22292 28.5132
lfingers 7.12502
lthumb 33.439 55.4197
rfemur -67.8254 -11.2153 14.0754
rtibia 73.0086
rfoot 19.5989 -0.00885059
rtoes 21.4018
lfemur -65.6083 6.33767 -11.7695
ltibia 72.1684
lfoot 17.9925 5.03378
ltoes 46.2414
401
root 16.7724 9.95462 -6.60947 -121.536 -85.3876 99.6301
lowerback 44.288 3.26396 -3.5707
upperback 15.5421 -0.0710354 1.23867
thorax -3.27162 -1.38452 3.21643
lowerneck -16.1407 12.2176 -5.12909
upperneck 18.7568 19.3679 -6.80588
head 8.77172 7.93812 0.8722
rclavicle -5.76476e-015 -1.11319e-014
rhumerus 0.720863 26.8924 -73.8246
rradius 90.7818
rwrist 4.00087
rhand -15.4115 26.9947
rfingers 7.12502
rthumb 10.7679 -2.70932
lclavicle -5.76476e-015 -1.11319e-014
lhumerus 20.3535 -33.8015 78.0581
lradius 65.7331
lwrist -30.5602
lhand 8.92473 28.659
lfingers 7.12502
lthumb 34.1058 55.4192
rfemur -67.6684 -11.2755 13.8563
rtibia 72.9889
rfoot 19.5511 0.0428629
rtoes 20.6161
lfemur -65.5414 6.14109 -11.9405
ltibia 72.109
lfoot 18.0111 5.00775
ltoes 46.1181
402
root 16.7728 9.954 -6.61388 -120.029 -85.4042 98.0901
lowerback 44.227 3.28598 -3.80073
upperback 15.5227 -0.127987 1.24086
thorax -3.27274 -1.41964 3.35731
lowerneck -16.2212 12.2873 -4.97225
upperneck 18.7123 19.4741 -7.00162
head 8.81 7.97529 0.809294
rclavicle 7.15625e-015 -4.37326e-015
rhumerus 0.882676 27.1402 -73.8079
rradius 90.5141
rwrist 4.10728
rhand -15.7993 26.8231
rfingers 7.12502
rthumb 10.3938 -2.89996
lclavicle 7.15625e-015 -4.37326e-015
lhumerus 20.1196 -33.584 78.0672
lradius 65.9599
lwrist -30.5568
lhand 8.88502 29.3394
lfingers 7.12502
lthumb 34.0681 56.108
rfemur -67.6285 -11.2503 13.7562
rtibia 73.0181
rfoot 19.5653 -0.0194697
rtoes 19.9877
lfemur -65.5216 6.0351 -11.9921
ltibia 72.0606
lfoot 18.1362 4.94677
ltoes 46.2557
